<?xml version="1.0" encoding="UTF-8"?>
<svg width="210px" height="183px" viewBox="0 0 210 183" version="1.1" xmlns="http://www.w3.org/2000/svg" xmlns:xlink="http://www.w3.org/1999/xlink">
    <!-- Generator: Sketch 48.2 (47327) - http://www.bohemiancoding.com/sketch -->
    <title>device-ios</title>
    <desc>Created with Sketch.</desc>
    <defs></defs>
    <g id="Page-1" stroke="none" stroke-width="1" fill="none" fill-rule="evenodd">
        <g id="device-ios" fill-rule="nonzero">
            <path d="M35.493,0 L174.507,0 C194.11,0 210,15.83 210,35.36 L210,183 L0,183 L0,35.36 C0,15.83 15.89,0 35.493,0 Z" id="Shape" fill="#000000"></path>
            <g id="a-link" transform="translate(10.000000, 10.000000)" fill="#222222">
                <path d="M23.653,0 L167.347,0 C180.41,0 191,10.55 191,23.565 L191,173 L0,173 L0,23.565 C0,10.55 10.59,0 23.653,0 Z" id="a"></path>
            </g>
            <path d="M54,10 L158,10 L158,11.58 C158,18.99 151.934,25 144.452,25 L67.548,25 C60.065,25 54,18.99 54,11.58 L54,10 Z" id="Shape" fill="#000000"></path>
            <polygon id="Shape" fill="#222222" points="13 32 199 32 199 183 13 183"></polygon>
            <g id="Group" transform="translate(26.000000, 17.000000)" fill="#FFFFFF">
                <path d="M1.61,6.167 L2.35,6.167 L2.35,0.882 L1.604,0.882 L0.321,1.872 L0.321,2.677 L1.595,1.695 L1.612,1.695 L1.612,6.167 L1.61,6.167 Z M4.77,6.167 L5.508,6.167 L5.508,0.882 L4.762,0.882 L3.478,1.872 L3.478,2.677 L4.751,1.695 L4.769,1.695 L4.769,6.167 L4.77,6.167 Z M7.224,5.35 C7.47,5.35 7.666,5.138 7.666,4.87 C7.666,4.603 7.47,4.39 7.223,4.39 C6.976,4.39 6.78,4.603 6.78,4.87 C6.78,5.138 6.976,5.35 7.222,5.35 L7.224,5.35 Z M7.224,2.68 C7.47,2.68 7.666,2.472 7.666,2.2 C7.666,1.933 7.47,1.72 7.223,1.72 C6.976,1.72 6.78,1.933 6.78,2.2 C6.78,2.47 6.976,2.68 7.222,2.68 L7.224,2.68 Z M10.256,6.265 C11.306,6.265 12.042,5.515 12.042,4.431 C12.042,3.406 11.37,2.663 10.434,2.663 C9.958,2.663 9.559,2.863 9.346,3.198 L9.329,3.198 L9.463,1.575 L11.756,1.575 L11.756,0.883 L8.856,0.883 L8.598,3.871 L9.288,3.871 C9.478,3.523 9.843,3.315 10.265,3.315 C10.873,3.315 11.298,3.791 11.298,4.453 C11.298,5.116 10.872,5.581 10.258,5.581 C9.714,5.581 9.298,5.221 9.244,4.698 L8.521,4.698 C8.565,5.621 9.278,6.265 10.251,6.265 L10.256,6.265 Z M14.491,6.269 C13.771,6.269 13.195,5.869 12.877,5.155 C12.677,4.733 12.577,4.213 12.577,3.595 C12.577,1.825 13.305,0.778 14.524,0.778 C15.384,0.778 16.054,1.338 16.202,2.178 L15.446,2.178 C15.328,1.748 14.963,1.465 14.516,1.465 C13.75,1.465 13.304,2.219 13.301,3.548 L13.314,3.548 C13.527,3.035 14.044,2.691 14.651,2.691 C15.581,2.691 16.269,3.434 16.269,4.438 C16.269,5.496 15.523,6.265 14.489,6.265 L14.491,6.269 Z M14.485,5.576 C15.059,5.576 15.518,5.086 15.518,4.466 C15.518,3.826 15.088,3.364 14.491,3.364 C13.896,3.364 13.454,3.826 13.454,4.452 C13.454,5.078 13.904,5.576 14.484,5.576 L14.485,5.576 Z M142.645,2.506 C143.661,1.489 145.067,0.859 146.62,0.859 C148.17,0.859 149.577,1.489 150.595,2.506 L149.967,3.134 C149.11,2.277 147.927,1.747 146.619,1.747 C145.309,1.747 144.127,2.277 143.269,3.134 L142.642,2.507 L142.645,2.506 Z M143.899,3.762 C144.595,3.065 145.557,2.635 146.619,2.635 C147.681,2.635 148.643,3.065 149.339,3.762 L148.711,4.389 C148.175,3.854 147.435,3.523 146.618,3.523 C145.8,3.523 145.061,3.853 144.525,4.389 L143.897,3.762 L143.899,3.762 Z M145.154,5.017 C145.529,4.643 146.047,4.411 146.619,4.411 C147.191,4.411 147.709,4.643 148.084,5.018 L146.619,6.482 L145.154,5.017 Z M139.14,1.902 L140.226,1.902 C140.311,1.902 140.38,1.977 140.38,2.069 L140.38,6.779 C140.38,6.871 140.31,6.946 140.226,6.946 L139.139,6.946 C139.053,6.946 138.984,6.872 138.984,6.78 L138.984,2.07 C138.984,1.98 139.054,1.905 139.138,1.905 L139.14,1.902 Z M137.046,2.912 L138.134,2.912 C138.219,2.912 138.288,2.986 138.288,3.078 L138.288,6.778 C138.288,6.87 138.218,6.945 138.134,6.945 L137.046,6.945 C136.961,6.945 136.892,6.871 136.892,6.779 L136.892,3.079 C136.892,2.987 136.962,2.912 137.045,2.912 L137.046,2.912 Z M134.954,3.919 L136.041,3.919 C136.127,3.919 136.195,3.994 136.195,4.086 L136.195,6.779 C136.195,6.871 136.125,6.945 136.041,6.945 L134.953,6.945 C134.868,6.945 134.799,6.871 134.799,6.779 L134.799,4.086 C134.799,3.994 134.869,3.92 134.952,3.92 L134.954,3.919 Z M132.861,4.423 L133.951,4.423 C134.035,4.423 134.103,4.498 134.103,4.59 L134.103,6.78 C134.103,6.87 134.033,6.946 133.949,6.946 L132.862,6.946 C132.778,6.946 132.709,6.872 132.709,6.78 L132.709,4.592 C132.709,4.5 132.779,4.425 132.862,4.425 L132.861,4.423 Z M154.111,2.823 L161.823,2.823 C161.908,2.823 161.977,2.898 161.977,2.99 L161.977,5.92 C161.977,6.01 161.907,6.086 161.823,6.086 L154.11,6.086 C154.024,6.086 153.955,6.012 153.955,5.92 L153.955,2.992 C153.955,2.9 154.025,2.825 154.108,2.825 L154.111,2.823 Z M163.181,3.72 C163.526,3.818 163.781,4.158 163.781,4.564 C163.781,4.969 163.525,5.31 163.179,5.407 L163.179,3.722 L163.181,3.72 Z" id="Shape"></path>
                <path d="M153.616,1.954 L162.318,1.954 C162.573,1.954 162.778,2.178 162.778,2.454 L162.778,6.454 C162.778,6.732 162.573,6.954 162.318,6.954 L153.616,6.954 C153.361,6.954 153.154,6.732 153.154,6.454 L153.154,2.454 C153.154,2.179 153.36,1.954 153.614,1.954 L153.616,1.954 Z M154.016,2.389 C153.762,2.389 153.556,2.612 153.556,2.889 L153.556,6.019 C153.556,6.296 153.762,6.519 154.016,6.519 L161.916,6.519 C162.172,6.519 162.378,6.296 162.378,6.019 L162.378,2.889 C162.378,2.613 162.172,2.389 161.918,2.389 L154.018,2.389 L154.016,2.389 Z" id="Shape"></path>
            </g>
            <rect id="Rectangle-path" fill-opacity="0.08" fill="#FFFFFF" x="68" y="43" width="32" height="32" rx="7"></rect>
            <rect id="Rectangle-path" fill-opacity="0.08" fill="#FFFFFF" x="68" y="100" width="32" height="32" rx="7"></rect>
            <rect id="Rectangle-path" fill-opacity="0.08" fill="#FFFFFF" x="24" y="100" width="32" height="32" rx="7"></rect>
            <rect id="Rectangle-path" fill-opacity="0.08" fill="#FFFFFF" x="111" y="43" width="32" height="32" rx="7"></rect>
            <rect id="Rectangle-path" fill-opacity="0.08" fill="#FFFFFF" x="111" y="100" width="32" height="32" rx="7"></rect>
            <rect id="Rectangle-path" fill-opacity="0.08" fill="#FFFFFF" x="155" y="43" width="32" height="32" rx="7"></rect>
            <rect id="Rectangle-path" fill-opacity="0.08" fill="#FFFFFF" x="155" y="100" width="32" height="32" rx="7"></rect>
        </g>
    </g>
</svg>